<svg xmlns="http://www.w3.org/2000/svg" width="48" height="48" id="svg3012" version="1.1"><g id="layer1"><path style="fill:#060606" d="M10.901 41.742c-.964-.462-1.927-1.458-2.489-2.574-.412-.818-.454-1.648-.466-9.327l-.013-8.429-2.518-2.733-2.518-2.733 1.867-1.807L6.63 12.33l1.522 1.781 1.522 1.781.981-.55c.948-.534 1.316-.551 11.154-.535l10.174.017 1.599-1.802c.88-.99 2.823-3.223 4.319-4.961l2.72-3.161 2.373 1.437 2.373 1.437-5.07 5.303-5.07 5.304-.095 9.546c-.052 5.25-.149 9.915-.216 10.365-.155 1.047-1.685 2.988-2.726 3.459-1.153.52-20.201.512-21.29-.01zm20.484-1.218c.48-.144 1.197-.628 1.593-1.076l.722-.814.07-9.438.07-9.438-5.586 5.85c-3.072 3.217-5.917 6.23-6.321 6.694-.405.465-1.05 1.09-1.435 1.389l-.699.543-5.245-5.67-5.246-5.67v7.635c0 9.087.032 9.22 2.437 10.009.937.307 18.612.295 19.64-.014zm-5.511-18.363 5.075-5.9-9.199-.07c-6.908-.052-9.435.014-10.147.266-.52.185-.918.455-.883.6.036.145 2.11 2.68 4.611 5.634 2.82 3.33 4.722 5.37 5.007 5.37.285 0 2.4-2.254 5.536-5.9z" id="path3986"/></g></svg>