<svg aria-hidden="true" style="width:0;height:0;position:absolute;overflow:hidden" xmlns="http://www.w3.org/2000/svg"><defs><symbol id="icon-sign-triangle" viewBox="0 0 32 32"><path d="m71.97 62.69 2.337-2.874 8.765 12.646 13.293-18.586 2.995 2.395-16.434 20.693zM-31.039-79.022l2.337-2.874 8.765 12.646 13.293-18.586 2.994 2.395-16.434 20.693zm91.797 93.688 6.857-9.018 6.431 6.226 4.618-5.452 6.815 5.771-5.911 5.138 8.179 6.926-9.375 9.227-5.207-6.75-4.617 5.453-6.362-5.387 5.317-7.201zM-130.489.978c-6.577 0-11.911 4.124-11.911 9.222 0 .137.014.265.022.4l5.556-.489a4.972 4.972 0 0 1-.156-1.221v-.001c.088-2.891 2.615-4.838 5.133-4.889 2.221-.046 4.436 1.389 4.978 4.889 0 2.795-2.249 5.067-5.045 5.067-.389 0-.77-.05-1.133-.134l-.022.023-.533-.201-.422 6.379h7.111l-.133-.979c4.894-1.151 8.466-4.678 8.466-8.844 0-5.097-5.334-9.222-11.911-9.222zm.067 20.089c-2.519.051-5.045 1.998-5.133 4.889a5.07 5.07 0 0 0 5.066 5.067c2.795 0 5.045-2.271 5.045-5.067-.542-3.499-2.756-4.934-4.978-4.889zM36.245 2.409l2.977 16.089h7.133l1.801-16.089H36.245zm6.622 18.822a5.07 5.07 0 0 0-5.067 5.066 5.07 5.07 0 0 0 5.066 5.067c2.795 0 5.045-2.271 5.045-5.067s-2.249-5.067-5.045-5.067zM28.948 25.785c-2.201 3.813-23.697 3.813-25.899 0s8.547-22.429 12.95-22.429 15.151 18.616 12.95 22.429z"/></symbol><symbol id="icon-radiobtn" viewBox="0 0 32 32"><path d="M28.801 16c0 7.07-5.732 12.802-12.802 12.802S3.197 23.07 3.197 16c0-7.07 5.732-12.802 12.802-12.802S28.801 8.93 28.801 16z"/></symbol><symbol id="icon-question" viewBox="0 0 32 32"><path d="m71.97 62.69 2.337-2.874 8.765 12.646 13.293-18.586 2.995 2.395-16.434 20.693zM-31.039-79.022l2.337-2.874 8.765 12.646 13.293-18.586 2.994 2.395-16.434 20.693zm91.797 93.688 6.857-9.018 6.431 6.226 4.618-5.452 6.815 5.771-5.911 5.138 8.179 6.926-9.375 9.227-5.207-6.75-4.617 5.453-6.362-5.387 5.317-7.201zM16 .978C9.423.978 4.089 5.102 4.089 10.2c0 .137.014.265.022.4l5.556-.489a4.972 4.972 0 0 1-.156-1.221v-.001C9.599 5.998 12.126 4.051 14.644 4c2.221-.046 4.436 1.389 4.978 4.889 0 2.795-2.249 5.067-5.045 5.067-.389 0-.77-.05-1.133-.134l-.022.023-.533-.201-.422 6.379h7.111l-.133-.979c4.894-1.151 8.466-4.678 8.466-8.844C27.911 5.103 22.577.978 16 .978zm.067 20.089c-2.519.051-5.045 1.998-5.133 4.889A5.07 5.07 0 0 0 16 31.023c2.795 0 5.045-2.271 5.045-5.067-.542-3.499-2.756-4.934-4.978-4.889zM36.245 2.409l2.977 16.089h7.133l1.801-16.089H36.245zm6.622 18.822a5.07 5.07 0 0 0-5.067 5.066 5.07 5.07 0 0 0 5.066 5.067c2.795 0 5.045-2.271 5.045-5.067s-2.249-5.067-5.045-5.067z"/></symbol><symbol id="icon-multiply" viewBox="0 0 32 32"><path d="m71.97 62.69 2.337-2.874 8.765 12.646 13.293-18.586 2.995 2.395-16.434 20.693zM-31.039-79.022l2.337-2.874 8.765 12.646 13.293-18.586 2.994 2.395-16.434 20.693zM3.597 11.093l6.857-9.018 6.431 6.226 4.618-5.452 6.815 5.771-5.911 5.138 8.179 6.926-9.375 9.227-5.207-6.75-4.617 5.453-6.362-5.387 5.317-7.201z"/></symbol><symbol id="icon-minus" viewBox="0 0 32 32"><path d="m3.029 13.546 25.617-3.506.324 11.92-25.617-.701zM71.97 62.69l2.337-2.874 8.765 12.646 13.293-18.586 2.995 2.395-16.434 20.693zM-31.039-79.022l2.337-2.874 8.765 12.646 13.293-18.586 2.994 2.395-16.434 20.693zm91.797 93.688 6.857-9.018 6.431 6.226 4.618-5.452 6.815 5.771-5.911 5.138 8.179 6.926-9.375 9.227-5.207-6.75-4.617 5.453-6.362-5.387 5.317-7.201z"/></symbol><symbol id="icon-exlamation" viewBox="0 0 32 32"><path d="m71.97 62.69 2.337-2.874 8.765 12.646 13.293-18.586 2.995 2.395-16.434 20.693zM-31.039-79.022l2.337-2.874 8.765 12.646 13.293-18.586 2.994 2.395-16.434 20.693zm91.797 93.688 6.857-9.018 6.431 6.226 4.618-5.452 6.815 5.771-5.911 5.138 8.179 6.926-9.375 9.227-5.207-6.75-4.617 5.453-6.362-5.387 5.317-7.201zM10.044 1.522l2.978 16.09h7.132l1.801-16.09H10.044zm6.623 18.823a5.071 5.071 0 0 0-5.067 5.066 5.07 5.07 0 0 0 5.066 5.067c2.795 0 5.044-2.271 5.044-5.067s-2.249-5.067-5.044-5.067z"/></symbol><symbol id="icon-equals" viewBox="0 0 32 32"><path d="m71.97 62.69 2.337-2.874 8.765 12.646 13.293-18.586 2.995 2.395-16.434 20.693zM-31.039-79.022l2.337-2.874 8.765 12.646 13.293-18.586 2.994 2.395-16.434 20.693zm91.797 93.688 6.857-9.018 6.431 6.226 4.618-5.452 6.815 5.771-5.911 5.138 8.179 6.926-9.375 9.227-5.207-6.75-4.617 5.453-6.362-5.387 5.317-7.201zM28.644 2.933 3.022 6.444l.333 7.711 25.622.689-.334-11.911zM3.022 17.156l.333 11.911 25.622-3.511-.334-7.711-25.622-.689z"/></symbol><symbol id="icon-dot" viewBox="0 0 32 32"><path d="M30.588 16c0 8.057-6.532 14.588-14.588 14.588S1.412 24.056 1.412 16C1.412 7.943 7.944 1.412 16 1.412S30.588 7.944 30.588 16z"/></symbol><symbol id="icon-divide" viewBox="0 0 32 32"><path d="m71.97 62.69 2.337-2.874 8.765 12.646 13.293-18.586 2.995 2.395-16.434 20.693zM-31.039-79.022l2.337-2.874 8.765 12.646 13.293-18.586 2.994 2.395-16.434 20.693zm91.797 93.688 6.857-9.018 6.431 6.226 4.618-5.452 6.815 5.771-5.911 5.138 8.179 6.926-9.375 9.227-5.207-6.75-4.617 5.453-6.362-5.387 5.317-7.201zM2.305 27.015l22.03-25.008 5.359 4.763L5.877 29.992z"/></symbol><symbol id="icon-cross" viewBox="0 0 32 32"><path d="M27.506 1.281 16.109 14.278 10.456 4.111 8.487 6.096l5.949 9.555L1.95 28.541l2.065 2.011 11.399-12.998 5.652 10.168 1.97-1.985-5.95-9.556 12.486-12.89-2.066-2.011z"/></symbol><symbol id="icon-chbox" viewBox="0 0 32 32"><path d="M5.876 3.487h20.248c1.32 0 2.389 1.245 2.389 2.78v19.466c0 1.536-1.07 2.78-2.389 2.78H5.876c-1.32 0-2.389-1.245-2.389-2.78V6.267c0-1.536 1.07-2.78 2.389-2.78z"/></symbol><symbol id="icon-arrow" viewBox="0 0 32 32"><path d="M11.615 27.949 9.551 15.822H2.844L15.227 3.694l13.929 11.771-7.738.713-1.032 12.127z"/></symbol><symbol id="icon-head" viewBox="0 0 32 32"><path d="M16 .72c-5.406 0-9.79 4.075-9.79 9.103 0 .43.034.852.096 1.266v.006a30.08 30.08 0 0 0-.056 3.203l-.001-.052c-.467-.148-1.035-.326-1.42-.319-.258.005-.433.095-.433.332 0 .189.865 1.713.959 1.87-.214.25-.273.693-.273 1.049-.117.539.262 1.111.296 1.364-.244.595-.412.713-.417 1.353 0 .791.153 1.027.889 1.027.566 0 .948-.285 1.094-.777.781 3.829 2.093 6.82 3.509 8.235 1.137 1.74 3.196 2.902 5.546 2.902s4.406-1.162 5.543-2.901c1.417-1.415 2.731-4.406 3.513-8.235.146.491.528.775 1.094.775.736 0 .889-.235.889-1.026-.005-.64-.173-.757-.417-1.353.034-.253.412-.825.296-1.364 0-.356-.057-.799-.27-1.049.095-.157.956-1.681.956-1.87 0-.238-.175-.327-.434-.332-.385-.007-.954.171-1.422.318a29.976 29.976 0 0 0-.057-3.144 8.54 8.54 0 0 0 .099-1.277c0-5.028-4.384-9.103-9.79-9.103z"/></symbol><symbol id="icon-steps" viewBox="0 0 32 32"><path d="M6.544 1.351c-.074-.001-.15 0-.224.003-1.377.058-2.579.91-3.47 1.71-.813.731-1.234 1.7-1.501 2.635-.512 2.876-.263 4.973 1.502 6.699 1.515 1.551 4.033 4.915 4.033 4.915 1.724-1.642 3.561-2.774 5.535-3.276 0 0 .175-5.504-.753-8.125-.425-1.2-1.004-2.465-2.156-3.348-.785-.601-1.856-1.184-2.965-1.213zm18.912 8.681c-1.109.028-2.18.612-2.965 1.212-1.152.883-1.732 2.148-2.156 3.348-.928 2.622-.753 8.125-.753 8.125 1.975.502 3.811 1.634 5.535 3.276 0 0 2.519-3.364 4.033-4.914 1.765-1.728 2.015-3.824 1.502-6.7-.267-.936-.688-1.904-1.502-2.635-.89-.8-2.093-1.651-3.47-1.71a3.096 3.096 0 0 0-.228-.002h.004zm-12.523 5.412a.894.894 0 0 0-.514.16c-.936.626-3.3 1.497-4.223 2.672-.692.883 2.022 3.044 4.128 3.598s4.988-1.466 4.033-2.885c-.718-1.067-2.18-3.54-3.424-3.546zm6.134 8.68c-1.244.006-2.705 2.478-3.424 3.546-.956 1.419 1.929 3.44 4.033 2.885 2.106-.555 4.82-2.716 4.128-3.598-.923-1.175-3.287-2.047-4.223-2.672a.89.89 0 0 0-.511-.16h-.003z"/></symbol><symbol id="icon-gears" viewBox="0 0 32 32"><path d="m14.101 2.367-.387 2.507-2.527-.207v1.36l-2.24-.68.273 2.58-2.173.067.813 1.827-2.167 1.493 1.42 1.22-2.773 1.287 2.98 1.627-.947 1.293 1.42.813-.407 1.627 1.56.473-.133 1.493 1.487-.273v1.56l2.04.067.2 1.56 2.373-.54.813 1.22 2.373-1.56 1.827.747 1.427-1.833 1.287.474-.133-1.353 1.087.2.407-1.627h1.013l-.34-1.08.813.2-.133-1.353 1.693-.34-1.013-1.693.747-.407-.68-.887 1.56-1.013-1.693-1.02 1.147-1.153-1.693-.88.473-1.22-1.22-.473.34-1.76-2.167-.207-.067-1.427-1.833.48-.473-1.493-1.967.274-.947-1.56-1.473 1.487-1.987-1.893zm2.78 4h.014c1.65 0 3.174.538 4.407 1.448l-.02-.014-1.206 1.587a5.795 5.795 0 0 0-3.26-.987c-.58 0-1.14.085-1.667.24l-.787-1.833a7.336 7.336 0 0 1 2.52-.44zm.127 3.473a4.321 4.321 0 0 1 2.693.809l-.013-.009-1.187 1.62a2.371 2.371 0 0 0-2.347-.114l-.84-1.893a4.217 4.217 0 0 1 1.685-.413h.008zm.073 3.167c.6.001 1.086.487 1.087 1.086a1.089 1.089 0 0 1-1.087 1.087c-.599 0-1.08-.487-1.08-1.087s.481-1.086 1.08-1.086zm-7.64.26 1.753.2a5.47 5.47 0 0 0-.007.287c0 1.764.897 3.33 2.28 4.307l-1.22 1.6a7.44 7.44 0 0 1-2.807-6.393zm3.48.1 2.033.22a2.36 2.36 0 0 0 .246 1.917l-.006-.01c.14.227.308.421.503.584l.004.003-1.133 1.547a4.342 4.342 0 0 1-1.107-1.213 4.324 4.324 0 0 1-.54-3.046zm6.68.713 1.914.207a4.34 4.34 0 0 1-2.1 3.6 4.232 4.232 0 0 1-.567.293l-.76-1.7c.145-.055.268-.116.384-.186l-.011.006a2.378 2.378 0 0 0 1.14-2.22zm2.74.673 1.907.22a7.473 7.473 0 0 1-4.007 5.507l-.84-1.967c1.507-.745 2.615-2.122 2.94-3.76z"/><path d="m25.287 20.467-.34.813-1.013-.273.2.547-.747.813.68.473-.813.813 1.087.067.133 1.22 1.087-.68.88.613.207-1.02.947-.267-.473-1.02.673-1.08h-1.147v-.82l-.953.407-.407-.607zm.273 1.426c.412 0 .747.328.747.74a.748.748 0 0 1-1.494 0c0-.412.335-.74.747-.74zM5.287 18.434l-.473 1.287-1.36-.88-.407 1.353-1.353-.407.747 2.107-1.22.407.88 1.42-1.353.68 1.42.407-.68 1.287 1.493.206-.473 1.08 1.693-.267v1.08l1.087-.947 1.013 1.287.407-1.56 1.293.34-.14-.88 1.087-.133-.2-.953h1.147l-.74-1.627 1.013-.473-1.087-.813.34-.747-1.287-.613.407-1.147-1.087.333-.133-.74-.613.2-.267-.607-.613.407-.54-1.087zm-.273 2.78.207 1.013-.473.206-.207.54-1.013-.133v-.407l.134-.547.407-.407.947-.267zm1.86.254.387.12.473.3.26.513-.033.987-1.027-.12-.047-.52-.453-.36.44-.92zm-1.047 1.166a.682.682 0 0 1 .68.68.675.675 0 1 1-1.353 0c0-.375.299-.68.673-.68zm-.68 1.607.44.273.56-.133.46.92-.34.227-.527.194-.56-.107-.76-.633.727-.74z"/></symbol><symbol id="icon-flower" viewBox="0 0 32 32"><path d="M16 .639c-1.265 0-2.61.366-3.766 1.006-1.149.635-2.126 1.551-2.567 2.707-.003.007-.011.011-.014.019h.007c-.178.442-.128.855-.02 1.335-.402-.294-.819-.513-1.257-.619l-.02-.007h-.02a4.768 4.768 0 0 0-.857-.076l-.131.002h.006c-.984.025-1.963.326-2.844.784-1.173.612-2.192 1.51-2.824 2.53s-.959 2.283-.942 3.534c.017 1.244.383 2.491 1.237 3.424l.014.018h.007c.321.36.733.528 1.23.681-.476.178-.892.404-1.211.704l-.014.011-.013.018c-.867.935-1.227 2.185-1.244 3.437s.309 2.522.942 3.541c.633 1.02 1.645 1.911 2.817 2.524 1.168.609 2.508.94 3.805.716h.02v-.007c.5-.078.86-.323 1.252-.649-.072.471-.068.917.052 1.323l.007.019.006.018c.437 1.166 1.424 2.086 2.581 2.726s2.494 1.005 3.759 1.005c1.265 0 2.61-.366 3.766-1.005 1.149-.636 2.126-1.552 2.567-2.708.003-.007.011-.011.014-.018h-.007c.178-.441.128-.855.02-1.335.402.293.819.512 1.257.619l.02.007h.02c1.303.23 2.652-.105 3.825-.717s2.192-1.505 2.824-2.524c.633-1.019.959-2.283.942-3.534-.017-1.245-.38-2.496-1.237-3.43-.004-.007-.009-.007-.014-.012-.323-.365-.736-.528-1.237-.68.476-.178.892-.404 1.211-.704l.013-.014.014-.018c.867-.935 1.227-2.185 1.244-3.436s-.309-2.522-.942-3.541c-.633-1.019-1.645-1.911-2.817-2.523-.88-.459-1.86-.765-2.844-.79l-.11-.001c-.301 0-.595.027-.88.079l.03-.005v-.007c-.007 0-.013.007-.02.007-.5.078-.86.327-1.252.656.072-.471.068-.917-.052-1.323l-.007-.019-.006-.019c-.437-1.166-1.424-2.086-2.581-2.726S17.265.637 16 .637zm0 1.194c.988 0 2.139.308 3.1.839.955.528 1.705 1.264 2.015 2.071.097.361-.11 1.596-.626 2.751-.055.123-.11.246-.171.368-.458.562-.872 1.13-1.159 1.654a5.87 5.87 0 0 0-.151.294c-.1.111-.203.213-.312.309l-.004.004h-.184a7.959 7.959 0 0 0-2.496-.393h-.013H16h-.019c-.892 0-1.751.144-2.554.409l.057-.016h-.348c-.011-.007-.046-.021-.1-.067a1.902 1.902 0 0 1-.11-.11l-.001-.001c-.275-.698-.713-1.412-1.225-2.089l-.026-.061c-.294-.676-.548-1.385-.691-1.966s-.1-1.093-.119-1.047v-.007l.007-.013c.304-.814 1.059-1.557 2.02-2.089s2.119-.839 3.108-.839zm8.604 4.368c.731.022 1.52.249 2.251.631.976.509 1.836 1.286 2.33 2.083s.784 1.881.77 2.921c-.014 1.026-.32 1.994-.908 2.647h-.007c-.277.258-1.536.719-2.876.882-.134.016-.267.032-.402.043-.761-.09-1.507-.135-2.146-.104-.143.009-.266.02-.387.034l.032-.003c-.038-.007-.075-.011-.112-.018-.23-1.852-1.381-3.461-3.049-4.472l-.059-.097c0-.013-.003-.048.014-.11.011-.041.038-.104.059-.159.511-.57.964-1.28 1.337-2.028l.006-.018c.006-.007.014-.011.019-.018.466-.558.953-1.061 1.474-1.525l.014-.012c.469-.406.96-.633.908-.625h.021c.227-.04.466-.056.71-.049zm-17.208.007c.233-.007.454.007.671.043.38.097 1.438.884 2.258 1.881.085.102.169.206.25.313.294.653.621 1.274.967 1.77.064.09.127.175.191.257.052.139.101.27.132.392-1.688 1.034-2.842 2.684-3.035 4.576-.012 0-.021.007-.033.007a9.83 9.83 0 0 0-2.008-.092c-.182.009-.364.021-.546.038-.016 0-.031-.007-.046-.007-.776-.101-1.56-.255-2.172-.429s-1.067-.461-1.033-.423l-.007-.007-.006-.012c-.604-.653-.927-1.63-.942-2.671s.276-2.125.77-2.921c.495-.796 1.362-1.574 2.337-2.084.732-.381 1.52-.608 2.251-.631zm15.793 10.347c.78.127 1.656.134 2.534.061.026.007.053 0 .078.007.777.1 1.561.255 2.173.429s1.067.461 1.033.422l.007.007.013.007c.605.654.921 1.636.935 2.677s-.276 2.125-.77 2.922c-.495.796-1.362 1.574-2.337 2.083-.969.505-2.03.736-2.936.582-.386-.105-1.429-.884-2.245-1.875-.085-.103-.17-.206-.25-.313-.294-.653-.622-1.274-.967-1.77a4.928 4.928 0 0 0-.2-.268l.008.011a3.293 3.293 0 0 1-.125-.372l-.006-.026c1.687-1.035 2.837-2.684 3.028-4.576.01 0 .017-.007.026-.007zm-16.913.042c.747.087 1.479.128 2.107.098.121-.007.235-.02.348-.031.039.007.075.016.112.024.23 1.852 1.385 3.461 3.054 4.471l.06.098c0 .014.003.048-.014.11-.011.041-.038.104-.059.159-.516.575-.969 1.291-1.343 2.046-.006.007-.014.011-.02.018a14.218 14.218 0 0 1-1.474 1.525l-.014.012c-.469.407-.96.633-.908.626h-.021c-.91.161-1.979-.073-2.955-.583-.976-.508-1.843-1.286-2.337-2.082s-.784-1.881-.771-2.923c.014-1.025.321-1.993.909-2.645h.007c.277-.258 1.536-.72 2.876-.882.146-.018.293-.031.441-.043zm7.032 5.287h.178c.75.252 1.614.397 2.511.397s1.761-.145 2.569-.414l-.057.017h.356c.011.007.046.021.099.067.039.036.076.072.111.109l.001.001c.274.699.713 1.412 1.225 2.089l.026.061c.294.676.548 1.385.691 1.966s.1 1.093.119 1.047v.007l-.007.012c-.304.814-1.059 1.557-2.02 2.089s-2.119.839-3.108.839-2.139-.307-3.1-.839c-.953-.526-1.697-1.26-2.008-2.064-.1-.357.102-1.599.619-2.756.055-.123.111-.246.171-.368.459-.562.872-1.136 1.159-1.66.054-.097.1-.192.145-.287a3.69 3.69 0 0 1 .317-.309l.005-.004z"/></symbol><symbol id="icon-home" viewBox="0 0 32 32"><path d="M16.712 1.007 2.708 17.384l1.898 1.109L6.269 16.2l.474 14.319.315.319 18.754.155 1.029-14.874 1.818 1.344.634-1.184-5.224-6.413-.08-.475.794-5.694-4.43-.24.075 1.978-3.716-4.43zm0 2.372 9.494 12.501-.869 12.741-2.217-.235.869-9.734-6.643-.08.63 9.814H7.772l-.949-13.135 9.889-11.872zm0 2.692L14.18 9.472l2.372 2.058.395-.235 1.823-1.503.235-.399-2.293-3.321zM8.561 19.206l.319 6.248h5.933l.235-6.248H8.56z"/></symbol><symbol id="icon-planning" viewBox="0 0 32 32"><path d="m2.12 2.431 1.106 22.855 13.49.316v-.799l-12.533-.79L2.752 3.072l19.993 1.58-.316 10.251-.79-.57V5.767L4.182 4.178l.948 16.5 12.235.781-.176.176-.316 1.589.158 2.378 1.273 2.378 3.01 1.589 3.967-.799 2.063-1.905 2.536-3.642-2.221-5.398-1.264-1.273-.957-.158-2.045-.957.623-11.735L2.118 2.429zM5.446 4.81l15.552 1.747.316 7.548-1.536-1.097.149.167-1.001-.737h.07l-1.334-.957-.562-.377-.843-.614.737.632.509.518.632.632-2.063.316 2.607-.132 1.431.913 1.044 1.123 2.221 1.747.728.29 1.966 2.73-.851-2.273.535.211h1.115l.948 1.106 1.431 5.082-3.493 4.757-3.651.948-2.852-1.58-1.431-2.703-.158-1.106.614-1.527.974.413 1.273-.632.316-1.273-.641-2.221.167 2.703-.957.948h-1.115l1.589-3.967-1.106-.948-1.589-1.431-.632-.957-.939-.158-.14-.149-.825-1.044-.474-1.72v.553l-.167-.807.079-.061.088.316v-.386l.079-.07.957-.474 1.264-.114-.448-.298.053-.026.176.123-.334-.281-.097.044-.07-.044h-.79l-1.747.474v1.273l1.273 2.378 2.378 2.063 2.027 2.501-.597 1.369.518-.983-.36 1.08-.351.351.193-.448-.281.535-.176.176-11.761-1.246-.641-14.92z"/></symbol><symbol id="icon-portfolio" viewBox="0 0 32 32"><path d="m20.688 5.719-.521.708-16.479-.188L1.5 9.135l.479 16.063.188.604.625.396 26.521.083.333-.333s-.002-.043.188-.375.667-18.583.667-18.583v-.375l-.667-.75-9.146-.146zm6.125.75 2.896.104.229.479-.417 18.292-.333.521h-.146l.146-.313L4.73 24.073l-.729 1-1.188-.708-.417-15.667.333-.479h.292l-.271.792 17.542.5 1.229-2.729h8.146l-2.854-.313zm-22.98.104 16.063.146L19 8.032 3.25 7.365l.583-.792zm-1.02 17.875.646 1.271h-.292l-.333-.333-.021-.938z"/></symbol><symbol id="icon-estimate" viewBox="0 0 32 32"><path d="M15.997 15.069c-.366 0-.728.015-1.092.043-.084.007-.193-.021-.251.039-.657.677-.947 2.09-.313 2.787.169.186.397.328.656.428-.214.79-.338 1.451-.097 1.389h2.413c.251-.004.109-.672-.119-1.471.179-.091.336-.208.462-.346.635-.697.344-2.11-.313-2.787-.058-.06-.167-.033-.251-.039-.328-.027-.71-.043-1.096-.043z"/><path d="M16.38 15.069c-.296 0-.59.015-.885.043-.068.007-.156-.021-.203.039-.532.677-.768 2.09-.253 2.787a1.4 1.4 0 0 0 .532.428c-.174.79-.273 1.451-.079 1.389h1.955c.203-.004.088-.672-.096-1.471.148-.093.272-.209.372-.342l.003-.004c.514-.697.279-2.11-.253-2.787-.047-.06-.136-.033-.203-.039a9.002 9.002 0 0 0-.888-.043z"/><path d="m14.54 16.92 3.086.075c.907.022 2.141.069 2.196-.035 2.993-.184 11.567-14.602 6.576-15.749H5.911C.923.856 7.036 16.33 12.919 16.618c.057.099.714.279 1.621.301zM8.767 28.846h14.465c.528 0 .956.257.956.574v.77c0 .317-.428.574-.956.574H8.767c-.528 0-.956-.257-.956-.574v-.77c0-.317.428-.574.956-.574z"/><path d="M9.571 23.594h12.768c2.093-.118.956 3.817.956 5.263 0 .041-.426.074-.956.074H9.571c-.53 0-.956-.033-.956-.074.398-2.064-1.246-5.258.956-5.263zm5.478-3.92 2.16-.083c.529-.02.924.048.956.074.617.969 6.488 3.837 3.88 3.846H9.956c-2.651.137 3.395-3.226 4.135-3.762.033-.024.427-.053.957-.074zM15.157 16.076l2.768.054c.813.016 1.92.05 1.97-.025 2.685-.133 10.374-10.565 5.898-11.394H7.42c-4.473-.257 1.009 10.938 6.285 11.146.051.072.641.202 1.454.218zM7.07 1.829h19.811c.528 0 .956.257.956.574v1.354c0 .317-.428.574-.956.574H7.07c-.528 0-.956-.257-.956-.574V2.403c0-.317.428-.574.956-.574z"/><path d="m16.27 19.674 1.816-.083c.445-.02.777.048.804.074.519.969 5.454 3.837 3.262 3.846H11.99c-2.228.137 2.854-3.226 3.476-3.762.028-.024.359-.053.804-.074zm-5.707 3.92h11.866c1.945-.118.889 3.817.889 5.263 0 .041-.396.074-.889.074H10.563c-.492 0-.889-.033-.889-.074.37-2.064-1.158-5.258.889-5.263z"/><path d="M9.966 28.846h13.341c.487 0 .882.257.882.574v.77c0 .317-.395.574-.882.574H9.966c-.487 0-.882-.257-.882-.574v-.77c0-.317.395-.574.882-.574z"/><path style="fill:var(--color1,#7a4c06)" d="M11.112 24.01h10.2c.464 0 .84.228.84.508v4.153c0 .281-.376.508-.84.508h-10.2c-.464 0-.84-.228-.84-.508v-4.153c0-.281.376-.508.84-.508z"/><path d="m15.375 15.252 2.43.047c.714.014 1.686.044 1.729-.022 2.357-.116 5.389-9.141 1.46-9.866l-9.057-.2c-3.927-.225-2.469 9.667 2.162 9.85.045.063.562.177 1.276.191z"/></symbol><symbol id="icon-clock" viewBox="0 0 32 32"><path style="fill:var(--color1,#7a4c06)" d="M3.698 15.999c0-6.795 5.508-12.304 12.301-12.304S28.3 9.204 28.3 15.999 22.792 28.3 16.001 28.3c-6.798 0-12.304-5.509-12.304-12.301z"/><path d="M14.136 16.002c0-1.016.835-1.839 1.864-1.839s1.864.823 1.864 1.839-.835 1.839-1.864 1.839a1.851 1.851 0 0 1-1.864-1.839z"/><path d="M16 25.953c-.555 0-1.004-.651-1.004-1.455v-5.589c0-.804.45-1.455 1.004-1.455s1.004.651 1.004 1.455v5.589c0 .804-.45 1.455-1.004 1.455zM16 14.716c-.64 0-1.159-.403-1.159-.9v-3.455c0-.497.519-.9 1.159-.9s1.159.403 1.159.9v3.455c0 .497-.519.9-1.159.9z"/><path d="M16.035 28.969c7.189 0 12.998-5.823 12.998-12.969S23.225 3.032 16.035 3.032C8.845 3.032 2.967 8.855 2.967 16s5.878 12.969 13.068 12.969zm0-1.344c-6.399 0-11.6-5.182-11.6-11.625s5.201-11.624 11.6-11.624 11.6 5.182 11.6 11.624c0 6.443-5.201 11.625-11.6 11.625z"/></symbol><symbol id="icon-second" viewBox="0 0 32 32"><path fill="#7A4C06" style="fill:var(--color1,#7a4c06)" d="M27.383 16c0 6.287-5.096 11.384-11.382 11.384S4.619 22.287 4.619 16 9.715 4.618 15.999 4.618c6.29 0 11.384 5.097 11.384 11.382z"/><path d="M17.724 15.998c0 .94-.772 1.701-1.725 1.701s-1.725-.762-1.725-1.701c0-.94.772-1.701 1.724-1.701s1.725.762 1.725 1.701z"/><path d="M15.999 5.79c.237 0 .429.68.429 1.518v5.829c0 .838-.192 1.518-.429 1.518s-.429-.68-.429-1.518V7.308c0-.838.192-1.518.429-1.518z"/><path d="M15.967 4C9.315 4 3.941 9.388 3.941 15.999s5.374 11.999 12.026 11.999 12.091-5.387 12.091-11.999S22.619 4 15.967 4zm0 1.244c5.921 0 10.733 4.794 10.733 10.755s-4.812 10.755-10.733 10.755S5.234 21.96 5.234 15.999c0-5.962 4.812-10.755 10.733-10.755z"/></symbol><symbol id="icon-calendar" viewBox="0 0 32 32"><path d="M2.703 1.619h26.593c.528 0 .957.795.957 1.775v25.211c0 .98-.428 1.775-.957 1.775H2.703c-.528 0-.957-.795-.957-1.775V3.394c0-.98.428-1.775.957-1.775z"/><path style="fill:var(--color1,#7a4c06)" d="M17.27 2.904c-.585 0-1.06.216-1.06.487v2.802c0 .271.475.487 1.06.487h10.503c.585 0 1.06-.216 1.06-.487V3.391c0-.271-.475-.487-1.06-.487H17.27zm-13.224.213c-.485 0-.878.577-.878 1.283v7.29c0 .706.393 1.282.878 1.282h8.717c.486 0 .879-.576.879-1.282V4.4c0-.707-.393-1.282-.879-1.282H4.046zm.888 10.971c-1.233 0-2.225.859-2.225 1.935v11.125c0 1.077.991 1.947 2.225 1.947h22.133c1.233 0 2.225-.871 2.225-1.947V16.023c0-1.076-.991-1.935-2.225-1.935H4.934z"/><path d="m2.767 14.159-.153 14.544h.239v.261l26.218.131v-.309l-18.57-.095.029-2.731 3.332.024-.029 2.719h.439l.029-2.719 3.303.012-.029 2.707h.43l.028-2.707 3.323.024-.029 2.683h.393l.029-2.683 3.389.011-.029 2.671h.381l.029-2.66 3.36.011-.028 2.648h.382l.153-14.544h-.373l-.029 2.422-3.36-.011.028-2.411h-.382l-.029 2.399-3.38-.011.029-2.387h-.391l-.029 2.387-3.332-.024.029-2.363h-.439l-.029 2.363-3.293-.012.028-2.351h-.44l-.029 2.351-3.322-.024.028-2.327h-.391l-.029 2.327-3.37-.011.029-2.315h-.401l-.029 2.315-3.36-.023.028-2.291h-.382zm.353 2.6 3.361.024-.029 2.731-3.36-.024.028-2.731zm3.762.024 3.37.011-.038 2.731-3.361-.011.029-2.731zm3.762.012 3.323.023-.029 2.731-3.333-.024.039-2.731zm3.761.023 3.294.011-.029 2.731-3.293-.011.028-2.731zm3.734.011 3.332.023-.038 2.731-3.323-.024.029-2.731zm3.724.024 3.38.011-.029 2.731-3.39-.011.039-2.731zm3.761.024 3.361.011-.029 2.731-3.361-.011.029-2.731zM3.082 19.81l3.361.023-.029 2.731-3.361-.024.029-2.731zm3.762.023 3.37.011-.029 2.731-3.37-.011.029-2.731zm3.761.012 3.323.024-.029 2.731-3.323-.011.029-2.743zm3.762.024 3.303.011-.029 2.743-3.303-.024.029-2.731zm3.734.011 3.332.024-.029 2.731-3.332-.011.029-2.743zm3.723.024 3.38.011-.029 2.743-3.389-.011.038-2.743zm3.762.024 3.361.011-.029 2.743-3.36-.023.028-2.731zM3.053 22.861l3.361.023-.029 2.731-3.361-.011.029-2.743zm3.762.024 3.36.011-.028 2.743-3.361-.011.029-2.743zm3.752.023 3.332.011-.029 2.743-3.332-.024.029-2.731zm3.772.011 3.294.023-.029 2.731-3.293-.011.028-2.742zm3.733.024 3.323.011-.029 2.743-3.323-.023.029-2.731zm3.714.024 3.389.011-.038 2.731-3.38-.011.029-2.731zm3.771.011 3.361.024-.038 2.731-3.361-.012.038-2.743zM3.015 25.923l3.36.011-.028 2.731-3.361-.011.029-2.731zm3.762.023 3.361.011-.029 2.731-3.361-.011.029-2.731z"/></symbol><symbol id="icon-timetable" viewBox="0 0 32 32"><path d="M2.708 1.625c-.53 0-.958.788-.958 1.771v25.208c0 .983.428 1.771.958 1.771h26.583c.53 0 .958-.788.958-1.771V3.396c0-.983-.428-1.771-.958-1.771H2.708zm1.375 2.083h23.833c.585 0 1.063.229 1.063.5V7c0 .27-.477.5-1.063.5H4.083c-.585 0-1.063-.23-1.063-.5V4.208c0-.271.477-.5 1.063-.5zm-.02 7.042h6.188c.406 0 .729.493.729 1.083v6.083c0 .59-.323 1.083-.729 1.083H4.063c-.406 0-.729-.493-.729-1.083v-6.083c0-.59.323-1.083.729-1.083zm8.854 0h6.167c.406 0 .729.493.729 1.083v6.083c0 .59-.323 1.083-.729 1.083h-6.167c-.406 0-.729-.493-.729-1.083v-6.083c0-.59.323-1.083.729-1.083zm8.833 0h6.188c.406 0 .729.493.729 1.083v6.083c0 .59-.323 1.083-.729 1.083H21.75c-.406 0-.729-.493-.729-1.083v-6.083c0-.59.323-1.083.729-1.083zM4.167 20.042h6.187c.406 0 .729.493.729 1.083v6.083c0 .59-.323 1.083-.729 1.083H4.166c-.406 0-.729-.493-.729-1.083v-6.083c0-.59.323-1.083.729-1.083zm8.854 0h6.146c.406 0 .75.493.75 1.083v6.083c0 .59-.344 1.083-.75 1.083h-6.146c-.406 0-.75-.493-.75-1.083v-6.083c0-.59.344-1.083.75-1.083zm8.812 0h6.188c.406 0 .729.493.729 1.083v6.083c0 .59-.323 1.083-.729 1.083h-6.188c-.406 0-.729-.493-.729-1.083v-6.083c0-.59.323-1.083.729-1.083z"/></symbol><symbol id="icon-done" viewBox="0 0 32 32"><path d="M7.267 27.828c-.643-.308-1.285-.972-1.659-1.716-.275-.545-.303-1.099-.311-6.218l-.009-5.619-3.357-3.644L4.42 8.22l2.029 2.375.654-.367c.632-.356.877-.367 7.436-.357l6.783.011 1.066-1.201c.587-.66 1.882-2.149 2.879-3.307l1.813-2.107 3.164 1.916-6.76 7.071-.063 6.364c-.035 3.5-.099 6.61-.144 6.91-.103.698-1.123 1.992-1.817 2.306-.769.347-13.467.341-14.193-.007zm13.656-.812c.32-.096.798-.419 1.062-.717l.481-.543.093-12.584-3.724 3.9c-2.048 2.145-3.945 4.153-4.214 4.463s-.7.727-.957.926l-.466.362-6.994-7.56v5.09c0 6.058.021 6.147 1.625 6.673.625.205 12.408.197 13.093-.009zm-3.674-12.242 3.383-3.933-6.133-.047c-4.605-.035-6.29.009-6.765.177-.347.123-.612.303-.589.4s1.407 1.787 3.074 3.756c1.88 2.22 3.148 3.58 3.338 3.58s1.6-1.503 3.691-3.933z"/></symbol><symbol id="icon-docs" viewBox="0 0 33 32"><path d="M25.684.523 5.325.992l-.619.465-.441.558v.375l.267.652.619.094v.652l-.975.094-.178.652.178.371 1.149-.094.178.656-.797.746-.971 1.023-.619 1.211v1.867l.263 1.863.53 1.492H2.671l-.178 1.214v1.492l.178 1.304.089 1.211h-.619l-.619.558v.656l.352.836.797.375.089 3.171v2.144l-.178 2.05-.619.187-.441.652-.014-.049-.075.232v.562l.267.746.441.277 24.697.187 2.21-.187 1.242-.84.794-1.117.445-1.585.263-1.957-.263-2.706-.797-1.769-1.505-1.679-1.149-.84.089-.746.085-1.211-.174-1.492-.267-1.304-.441-.375.263-.184.178-.375-.089-.652-.53-.465-.352-1.027V9.565l.174-1.679.089-.84h.619l.178-.465v-.558l-.441-.558-2.744-.094V5.09h.619V3.692l-.445-.281h.797V.521zM1.507 29.471l.014-.045.263-.375-.352.187.075.232zM24.798 1.55v.652l-19.206.371-.352-.184.174-.375.445-.187 18.939-.277zm-.174 2.609.263.469-20.092-.187 19.828-.281zm2.477 1.773.356.652h-.356l-21.775.281-.441.746-.267 1.117v1.304l.267 1.308.797 1.398.441.465 21.245-.652-.267.652-21.949.094-.534-.094-.352-.465-.619-1.867-.089-1.211.089-1.398.619-.84 1.327-1.304 21.508-.187zm-.708 1.211-.089 1.304-6.904-.184-.263.465 6.904.375.352 2.144.267.93-20.537.094-.263-.93 14.071-.562H5.949l-.267-1.675 5.135-.281.174-.187-5.31-.371v-.84l20.711-.281zM5.504 14.415l1.505.469-.356 2.05.089 1.211-.883-.094-.445-2.05.089-1.585zm19.917.652.619 1.492-.178 1.308h-.441v-2.8zM2.849 19.73l25.316.187 1.238.652.971 1.398.534 1.585.174 1.585v1.957l-.619 1.679-.797 1.585-1.327.558-25.757-.558-.352-.375.178-.281.619-.277 25.49.84.975-1.308.352-1.582.089-1.492.089-1.96-.178-1.211-.441-1.211-.797-.84-26.024-.094-.263-.094-.089-.558.619-.187zm.619 1.679 24.871.187v.93l-.089.652-5.398-.465-.619.652 5.665.375.267.371v2.613l-16.818-.187-1.238-2.89h1.858v-.469l-8.231.281-.267-2.05zm1.327 2.796-.352 3.448.352.281 6.726-.281v-.465l3.278-.187 13.366.558v1.867L3.116 28.399l.352-3.823 1.327-.371z"/></symbol><symbol id="icon-speaking-skill" viewBox="0 0 32 32"><path d="m4.607 20.697 4.123-2.374 10.37-.125 1.124-.875.375-1.374.25-8.995-.999-1.375-.999-.375-16.742-.375-1.124.5-.375.999v.999l1.124 10.37.625.749.75.25h2.374z"/><path d="m27.508 27.294-4.123-2.374-10.37-.125-1.124-.875-.375-1.374-.25-8.995.999-1.374.999-.375 16.742-.375 1.124.5.375 1v.999l-1.124 10.37-.625.75-.75.25h-2.374z"/></symbol><symbol id="icon-vocab-skill" viewBox="0 0 32 32"><path d="M6.691 4.835c-.723 0-1.339.423-1.81 1.071s-.833 1.531-1.119 2.571c-.572 2.082-.83 4.795-.809 7.524s.298 5.451.881 7.524c.291 1.037.665 1.928 1.119 2.571s1.046 1.076 1.738 1.072h20.834c.383 0 .741-.079 1.024-.238s.5-.405.5-.762v-2.643c0-.296-.167-.51-.381-.667-.14-.102-.323-.136-.5-.19-.05-.315.051-4.92-.739-7.07-.872-2.379.046-6.23.739-6.286.177-.055.36-.066.5-.168.214-.156.381-.394.381-.69V5.835c0-.357-.217-.627-.5-.786s-.641-.235-1.024-.213c-6.585.358-13.063.827-20.834 0zm20.667.667c.283.159.524.453.524.81-2.761 1.549-16.741.238-20.857.738-.724 0-1.339.304-1.81.952s-.142 2.103-.429 3.143c-.573 2.082-.83 4.795-.809 7.524.018 2.389.244 4.789.69 6.738a11.78 11.78 0 0 1-.476-1.429c-.583-2.074-.884-4.794-.905-7.524s.237-5.442.81-7.524c.286-1.041.648-1.922 1.119-2.571 1.372-1.266 17.484 1.412 22.142-.857zM14.477 8.668c4.326-.061 8.649.157 12.976.453-.427.145-.939 3.899-.738 6.476.219 2.811.698 7.016.738 7.262-6.923 1.75-13.839.157-20.762 0-.034 0-.062.012-.095 0V20.05c.037.011.057.023.095.023 3.179-.635 13.681.422 16.667-1-4.386-.274-13.078-1-16.667-1-.038 0-.059.011-.095.023-.1-1.935 1.483-1.727 2.595-2.071l1.714-.119c.587-.043-2.117-.406-2.428-.5l-1.881-.571v-1c.037.011.009-.904 5.953-.904 8.232-.358-.971-1.072-5.858-1.072-.038 0-.059.012-.095.024V9.145c.036-.008.058-.03.095-.024a84.319 84.319 0 0 1 7.786-.453zm2.904 15.667c3.173-.034 6.35-.034 9.524.119-.004.008-.059.077-.071.095h.69a.135.135 0 0 1 .024-.048c.091-.008.175-.018.262-.023.35.116.548.254.548.404 0 .053-.161.091-.358.12-.128.018-.29.015-.452.023a.399.399 0 0 0-.023.069l-.001.003h-.69c.011-.018.067-.091.071-.095-6.347-.305-12.701-.027-19.048 0h-.095v.095h-.976v-.548h.976v-.095h.095c3.173-.014 6.352-.084 9.524-.119zm-36.229-49.842c-.723 0-1.34.434-1.81 1.082s-.838 1.519-1.124 2.56c-.573 2.082-.832 4.803-.811 7.533s.312 5.459.894 7.532c.292 1.037.649 1.916 1.103 2.56s1.056 1.086 1.748 1.082H2.01a2.08 2.08 0 0 0 1.002-.256l-.011.005c.283-.159.52-.414.52-.77v-2.622c0-.296-.181-.53-.395-.686-.139-.102-.322-.133-.499-.187-.05-.315.061-4.924-.728-7.075-.873-2.378.036-6.207.728-6.263.178-.055.36-.085.499-.187.215-.157.396-.391.396-.687v-2.601c0-.356-.238-.632-.521-.791a1.854 1.854 0 0 0-1.025-.228h.005c-6.584.358-13.059.827-20.83 0zm0 4.286c6.923-.741 13.845-.473 20.767 0-.427.145-.949 3.895-.749 6.472.219 2.811.709 7.037.749 7.284-6.923 1.749-13.845.156-20.767 0a.303.303 0 0 1-.106-.022l.002.001v-2.789c.037.012.066.022.104.022 3.179-.635 13.682.423 16.668-.999-4.386-.274-13.08-.999-16.668-.999a.308.308 0 0 0-.106.021l.002-.001c-.099-1.935 1.49-1.738 2.601-2.081l1.726-.125c.587-.043-2.112-.392-2.423-.486l-1.904-.575v-.999c.037.011.027-.899 5.971-.899 8.232-.358-.98-1.078-5.867-1.078a.345.345 0 0 0-.107.021l.002-.001v-2.747c.036-.008.067-.027.104-.021z"/></symbol><symbol id="icon-writing-skill" viewBox="0 0 32 32"><path d="M1.946 1.275c-.56 0-.998.81-.998 1.801v25.406c0 .991.438 1.777.998 1.777h.219V3.928c0-.246.132-.461.341-.584v25.139c0 .991.289 1.777.657 1.777h.146V3.929c0-.376.204-.681.462-.681h4.38v26.136c0 .166.151.292.316.292h.049c.166 0 .316-.126.316-.292V3.248H31.05v-.17c0-.991-.438-1.801-.998-1.801H1.944zm25.163 2.652c-1.358.013 2.291 1.899 3.188 2.774.455-.725-.434-1.814-1.363-2.434-.942-.231-1.512-.344-1.825-.341zm-.998.39c-.779.086-1.676.703-2.312 1.655l-4.575 5.938.024.122a.453.453 0 0 0-.243.17l-.511.779c-.158.236-.09.548.146.706s.548.09.706-.146l.243-.365.024.049 4.697-6.717.049.024c1.073-1.015.925-.936.17.024L14.43 21.693c-.917 1.373-2.962 5.796-2.166 6.327l.195.146 1.63 1.071c.796.532 4.096-3.056 5.013-4.429L29.201 9.671c.917-1.373 1.04-2.899.243-3.431l-1.825-1.217c-.05-.034-.092-.073-.146-.097-.384-.099-.709-.383-1.046-.608a1.589 1.589 0 0 0-.316 0zM12.459 28.166l-.608.925c-.394.59-.393 1.27 0 1.533s1.017 0 1.411-.584l.608-.925-1.411-.949zM25.065 6.994l.438.292c-.081.106-.166.201-.243.316l-2.458 3.675a2.133 2.133 0 0 0-.487-.195l2.409-3.602c.113-.17.218-.338.341-.487zm-3.31 4.94c.092.128.22.243.365.365l-6.571 9.832c-.759 1.137-2.381 4.393-2.434 5.524l-.195-.122c-.603-.403 1.425-4.5 2.288-5.792l6.546-9.807zm-9.539 17.813c.079-.02.15 0 .219.049.137.092.178.281.073.438s-.301.213-.438.122-.153-.306-.049-.462a.323.323 0 0 1 .195-.146z"/></symbol><symbol id="icon-reading-skill" viewBox="0 0 32 32"><path d="M3.095 1.56v1.452h24.786v24h1.048L30.286 1.56H3.096zM1.714 4.726v1.738h24.452V4.726H1.714zm0 2.714v1.738h24.452V7.44H1.714zm0 2.715v1.738h24.452v-1.738H1.714zm15.834 2.214c.166.101.31.239.429.405-.055-.008-.086 0-.143 0h-.31c-.758 0-1.357.689-1.357 1.548v7c-.938 1.155-1.579 2.665-2 4.143-.361 1.268-.355 2.666-.143 3.976.056.344.148.676.262 1H26c.11-1.075.173-2.159.333-3.143.123-.754.379-1.593 0-2.286-.756-1.381-.261-1.562-4.143-2.976-.917-.334-1.936-1.337-3.095-1.952V13.87c0-.765-.671-1.372-1.548-1.5zm-1.881.286c-.438.282-.714.716-.714 1.214v7.024c-1.282 1.155-2.163 2.641-2.738 4.119-.493 1.268-.456 2.69-.167 4 .11.499.312.966.571 1.429h1c-.209-.502-.388-1.028-.476-1.571-.212-1.31-.242-2.708.119-3.976.421-1.478 1.086-2.988 2.024-4.143v-7c0-.418.146-.818.381-1.095zm-12.738.571v7.262h10.619v-7.262H2.929zm17.571.262v1.476h5.571v-1.476H20.5zm-.548 2.476v2.262h5.571v-2.262h-5.571zm2.238 3.5v1.762h3.881v-1.762H22.19zM3.762 21.726v2h8.643v-2H3.762zm17.143.333c.677.346 1.146.644 1.476.881-.263-.144-.55-.299-.905-.476-.18-.09-.38-.241-.571-.405zM4.048 25.226v1.5h6.143v-1.5H4.048z"/></symbol><symbol id="icon-listening-skill" viewBox="0 0 32 32"><path d="M91.806 64.712c-.723 0-1.339.423-1.81 1.071s-.833 1.531-1.119 2.571c-.573 2.082-.83 4.794-.809 7.524s.298 5.45.881 7.524c.291 1.036.665 1.928 1.119 2.571s1.046 1.076 1.738 1.071h20.834c.383 0 .741-.078 1.023-.238s.501-.405.501-.762v-2.643c0-.296-.167-.51-.381-.667-.14-.102-.323-.137-.501-.19-.05-.315.052-4.921-.738-7.071-.873-2.378.046-6.229.738-6.286.178-.054.36-.065.501-.167.214-.156.381-.395.381-.69v-2.619c0-.356-.217-.626-.501-.786s-.64-.235-1.023-.214c-6.585.358-13.063.827-20.834 0zm20.666.667c.283.159.523.453.523.809-2.76 1.55-16.739.238-20.857.738-.722 0-1.339.304-1.81.952s-.142 2.102-.428 3.143c-.573 2.082-.83 4.794-.81 7.524.018 2.389.244 4.789.691 6.738a11.78 11.78 0 0 1-.476-1.429c-.583-2.074-.884-4.794-.905-7.524s.237-5.442.81-7.524c.286-1.041.648-1.923 1.118-2.571 1.373-1.266 17.486 1.412 22.143-.857zm-12.88 3.167c4.326-.061 8.649.156 12.976.453-.427.145-.939 3.899-.738 6.476.219 2.811.698 7.015.738 7.262-6.923 1.749-13.839.157-20.762 0-.034 0-.062.012-.095 0v-2.81c.037.011.057.024.095.024 3.179-.635 13.681.422 16.667-1-4.386-.274-13.078-1-16.667-1-.038 0-.059.011-.095.024-.1-1.935 1.483-1.728 2.595-2.071l1.714-.119c.587-.043-2.117-.406-2.428-.501l-1.881-.571v-1c.037.011.009-.905 5.952-.905 8.232-.358-.97-1.071-5.857-1.071-.038 0-.059.012-.095.024v-2.738c.035-.008.058-.03.095-.023a83.625 83.625 0 0 1 7.786-.453zm2.904 15.667c3.173-.035 6.35-.034 9.524.119-.004.008-.059.076-.071.095h.69a.135.135 0 0 1 .024-.048c.091-.008.175-.018.262-.024.35.116.547.254.547.405 0 .052-.16.091-.357.119-.129.018-.29.015-.453.024a.399.399 0 0 0-.023.069l-.001.003h-.69c.011-.018.067-.091.071-.095-6.347-.305-12.701-.027-19.048 0h-.095v.095H91.9v-.547h.976v-.095h.095c3.173-.014 6.352-.085 9.524-.12zM-18.848-25.507c-.723 0-1.34.434-1.81 1.082s-.838 1.519-1.124 2.56c-.573 2.082-.832 4.803-.811 7.533s.312 5.459.894 7.532c.292 1.037.649 1.916 1.103 2.56s1.056 1.086 1.748 1.082H2.01a2.08 2.08 0 0 0 1.002-.256l-.011.005c.283-.159.52-.414.52-.77v-2.622c0-.296-.181-.53-.395-.686-.139-.102-.322-.133-.499-.187-.05-.315.061-4.924-.728-7.075-.873-2.378.036-6.207.728-6.263.178-.055.36-.085.499-.187.215-.157.396-.391.396-.687v-2.601c0-.356-.238-.632-.521-.791a1.854 1.854 0 0 0-1.025-.228h.005c-6.584.358-13.059.827-20.83 0zm0 4.286c6.923-.741 13.845-.473 20.767 0-.427.145-.949 3.895-.749 6.472.219 2.811.709 7.037.749 7.284-6.923 1.749-13.845.156-20.767 0a.303.303 0 0 1-.106-.022l.002.001v-2.789c.037.012.066.022.104.022 3.179-.635 13.682.423 16.668-.999-4.386-.274-13.08-.999-16.668-.999a.308.308 0 0 0-.106.021l.002-.001c-.099-1.935 1.49-1.738 2.601-2.081l1.726-.125c.587-.043-2.112-.392-2.423-.486l-1.904-.575v-.999c.037.011.027-.899 5.971-.899 8.232-.358-.98-1.078-5.867-1.078a.345.345 0 0 0-.107.021l.002-.001v-2.747c.036-.008.067-.027.104-.021zM25.312 1.722c-.136 0-.256.096-.386.183.648 3.304 2.6 8.396 2.6 14.116 0 5.722-1.953 10.813-2.6 14.116.13.087.251.142.386.142 1.613 0 4.448-6.377 4.448-14.258S26.926 1.722 25.312 1.722zm-4.57 1.463c-.136 0-.255.084-.386.162.648 2.965 2.6 7.539 2.6 12.674 0 5.137-1.953 9.688-2.6 12.653.131.078.251.142.386.142 1.613 0 4.448-5.722 4.448-12.795S22.356 3.185 20.742 3.185zm-3.899 1.137a.798.798 0 0 0-.386.122c.648 2.705 2.6 6.893 2.6 11.577 0 4.686-1.953 8.852-2.6 11.557.13.072.251.101.386.101 1.613 0 3.131-5.205 3.131-11.658S18.456 4.322 16.843 4.322zm-2.661.142c-.458-.011-.85.024-1.117.122-1.306.478-3.872 3.814-5.666 6.885.206.236.325.564.325.914v8.225c0 .151-.018.293-.061.427 1.88 2.952 4.456 6.075 5.748 6.499 3.608-7.333 2.472-13.362.772-23.072zM3.742 9.826h-.005c-.827 0-1.497.67-1.497 1.497v9.348c0 .835.668 1.503 1.502 1.503h1.265c.827 0 1.497-.67 1.497-1.497V11.323c0-.827-.67-1.497-1.497-1.497h-.006z"/></symbol><symbol id="icon-speech-bulb" viewBox="0 0 32 32"><path d="m7.67 26.795 5.61-3.23 14.11-.17 1.53-1.19.51-1.87.34-12.24-1.36-1.87-1.36-.51-22.78-.51-1.53.68-.51 1.36v1.36l1.531 14.11.85 1.019 1.019.341h3.23z"/></symbol><symbol id="icon-british-fl" viewBox="0 0 32 32"><path fill="#fff" style="fill:var(--color1,#fff)" d="M.848 6.971h30.388v18.173H.848z"/><path fill="red" style="fill:var(--color2,red)" d="m28.41 6.958-9.271 5.681 2.043.105 9.527-5.692-2.298-.094zm-13.858.011v7.309H.72v3.455h13.832v7.309h2.897v-7.309h13.832v-3.455H17.449V6.969h-2.897zM.851 7.378v1.019l7.317 4.568 2.465-.105L.851 7.378zm22.752 11.426-2.465.105 9.782 5.482v-1.019l-7.317-4.568zm-13.225.252-9.271 5.681 2.043.105 9.527-5.692-2.298-.094z"/><path fill="navy" style="fill:var(--color3,navy)" d="m5.024 6.972 8.426 4.978V7.077l-8.426-.105zm21.95 0-8.426.105v4.873l8.426-4.978zM.824 8.873l-.088 3.855 6.295-.2L.824 8.874zm30.35 0-6.208 3.655 6.295.199-.088-3.854zM.736 18.954l.088 3.855 6.207-3.655-6.295-.2zm30.526 0-6.295.2 6.208 3.655.088-3.854zm-17.812.788L5.024 24.72l8.426-.105v-4.873zm5.098 0v4.873l8.426.105-8.426-4.978z"/></symbol><symbol id="icon-ukr-fl" viewBox="0 0 32 32"><path fill="#00f" style="fill:var(--color4,#00f)" d="M.578 6.91h30.844v9.208H.578z"/><path fill="#ff0" style="fill:var(--color5,#ff0)" d="M.578 16.053h30.844v9.208H.578z"/></symbol><symbol id="icon-it" viewBox="0 0 32 32"><path d="m31.142 2.349-27.413.382-.472.382-.126.516v19.232L.858 26.834l-.472.64v1.795l.597.382 29.679-.382.481-.134.232-1.28v-.515l-.357-3.581.597-20.254v-.774l-.472-.382zM4.156 4.001l25.63.248.312.258v.334l-.312 16.273-.079.678-.312.076-24.285-.076-.954-.172-.152-.258L4.156 4zM30.18 22.298v.592l-25.151-.505 25.15-.086zm-23.11.85-.437.62 17.054.019.009-.133.089.133h5.448l.071.038-5.492.01.116.162v.497l4.699.009.053.038-4.752.01v1.07h6.169l.081.038-6.25.009v1.118l-.392-.076.053-1.042-18.285.019-.766 1.099.686-1.099H3.112l-.856 1.099.686-1.099h-.606l.66-.076 1.086-1.756h-.401l.446-.057.347-.564h.553l-.419.535h1.81l.339-.535.312-.086zm.749.009 17.287.019.053.038-17.795.029.455-.086zm15.869.678-17.108.019-1.221 1.748 18.232.019.062-1.07-12.766.019.455-.086 12.312.01.035-.659zm-19.14.019-1.364 1.748h2.095l1.096-1.748H4.546zm14.086 2.426v.258l-5.617.086-.874.763.472-1.021 6.018-.086zm11.464 1.442.081.421-.232.258L.92 28.229v.678l-.321-1.02 29.501-.163z"/></symbol><symbol id="icon-physics" viewBox="0 0 32 32"><path d="M23.458 2.92 17.159 6.2l-1.691-2.482-1.805 2.819L7.13 3.883a14.779 14.779 0 0 0-2.989 3.113l-.03.045.738 4.694-3.366 3.237c-.004.139-.009.276-.009.416 0 1.371.192 2.699.547 3.957l2.725 1.762 2.62 5.96c.57.422 1.166.808 1.796 1.145l6.758-2.021 4.964 2.889c2.884-1.051 5.27-2.894 6.963-5.266l.03-.044-3.47.244-.547 1.648h-1.179l-.538 1.987-6.1-3.54-6.368 1.917-2.629-6.012-4.634-2.994 4.72-4.555-1.18-7.54 8.269 3.358 1.466-2.274 1.354 2.004 7.877-4.093a14.268 14.268 0 0 0-1.393-.962l-.065-.036zm1.673 1.51-8.138 4.234-1.241-1.822-1.327 2.074-7.557-3.071 1.076 6.889-4.312 4.147 4.234 2.741 2.403 5.483 5.813-1.744 5.562 3.237.503-1.822h1.076l.503-1.501 3.48-.244-.824-5.318 3.072-3.15-4.651-2.907.329-7.227zm.755.313-.303 6.542 4.91 3.071a14.526 14.526 0 0 0-.457-2.765l.023.101-2.281-1.423.147-3.175a14.66 14.66 0 0 0-2.03-2.343l-.009-.008zM23.458 6.59l-.269 5.813 3.749 2.342-2.473 2.542.667 4.277-2.811.2-.398 1.206h-.868l-.399 1.466-4.485-2.603-4.677 1.406-1.935-4.416-3.41-2.204 3.47-3.349-.867-5.544 6.082 2.472 1.076-1.674.998 1.474 6.551-3.41zm-.834 1.076-5.76 3.002-.877-1.292-.946 1.466-5.345-2.169.763 4.876-3.054 2.933 2.993 1.943 1.701 3.879 4.113-1.232 3.939 2.29.356-1.292h.763l.356-1.059 2.464-.173-.581-3.766 2.169-2.229-3.288-2.057.234-5.118zm-1.189 1.527-.19 4.122 2.654 1.657-1.752 1.796.477 3.028-1.995.148-.277.85h-.616l-.277 1.041-3.176-1.848-3.314.998-1.371-3.124-2.411-1.562 2.456-2.369-.616-3.931 4.312 1.752.754-1.189.712 1.051 4.633-2.421zm-4.78 2.266a.871.871 0 0 0-.53.485 4.012 4.012 0 0 0-3.253 3.935v.007a4.007 4.007 0 0 0 4.006 4.006h.005a4.007 4.007 0 0 0 4.006-4.006v-.002a4.02 4.02 0 0 0-3.192-3.931.833.833 0 0 0-.361-.414l-.004-.002-.442 1.154-.078-.009-.156-1.223zm-.138.234.069 1.354c.098.04.2.069.312.069l.504-1.301.321.703a3.481 3.481 0 0 1 2.629 3.366v.003a3.477 3.477 0 0 1-3.469 3.477 3.477 3.477 0 0 1-3.47-3.477V15.878a3.468 3.468 0 0 1 2.658-3.372l.024-.005c.008.03.023.057.034.086l.018-.087.373-.807zm13.994 2.95-3.192 3.288.85 5.405a14.256 14.256 0 0 0 1.833-4.045l.024-.102-.104-.686.347-.347a14.67 14.67 0 0 0 .243-3.515zm-13.622.39c-.469 0-.859.382-.859.85s.39.85.859.85.842-.381.842-.85a.844.844 0 0 0-.842-.85z"/></symbol><symbol id="icon-processing" viewBox="0 0 32 32"><path d="M15.071 1.953C7.316 1.953 1.024 8.246 1.024 16s6.293 14.048 14.047 14.048c.312 0 .622-.028.929-.048.307.02.617.048.929.048 7.755 0 14.047-6.293 14.047-14.048S24.683 1.952 16.929 1.952c-.312 0-.622.028-.929.048-.307-.02-.617-.048-.929-.048zM16 5.381a10.661 10.661 0 0 1 8.117 4.955l.026.044H26a10.524 10.524 0 0 1 1.595 5.601V16v-.001c0 2.061-.584 3.987-1.595 5.619h-1.858c-1.751 2.792-4.696 4.697-8.102 4.997l-.04.003a10.663 10.663 0 0 1-8.117-4.956l-.026-.044H6.001a10.521 10.521 0 0 1-1.596-5.602v-.018.001c0-2.061.584-3.987 1.595-5.619h1.858c1.751-2.792 4.696-4.697 8.102-4.997L16 5.38z"/><path d="M7.924 15.487c.28-.008.509-.095.685-.26s.294-.391.352-.679c.058-.288.089-.78.093-1.477s.015-1.156.033-1.377c.033-.35.094-.632.183-.845s.199-.383.33-.51.299-.224.503-.291c.138-.042.364-.063.677-.063h.306v.983h-.17c-.379 0-.63.078-.754.235s-.186.506-.186 1.048c0 1.093-.02 1.783-.06 2.071-.065.447-.178.791-.336 1.033s-.407.457-.746.645c.4.192.691.485.871.879s.27 1.04.27 1.937c0 .814.007 1.298.022 1.452.029.284.103.482.221.595s.35.169.696.169h.169v.982h-.306c-.357 0-.615-.033-.775-.1a1.32 1.32 0 0 1-.577-.464l-.002-.003c-.153-.215-.252-.487-.298-.817s-.07-.87-.074-1.621c-.004-.751-.034-1.27-.093-1.558s-.176-.515-.352-.682c-.176-.167-.405-.254-.685-.263zm4.441 3.83v-1.283h1.12v1.283zm3.102 0v-1.283h1.12v1.283zm3.103 0v-1.283h1.12v1.283zm5.505-3.83v1.02c-.28.008-.509.096-.685.263s-.294.393-.352.679c-.058.285-.089.777-.093 1.474s-.015 1.156-.033 1.377c-.033.355-.094.637-.183.848s-.199.38-.331.507-.299.224-.503.291c-.138.046-.364.069-.677.069h-.306v-.982h.169c.379 0 .63-.078.754-.235s.186-.508.186-1.054c0-1.043.017-1.705.049-1.984.058-.463.175-.833.35-1.111s.422-.493.743-.648c-.419-.229-.714-.533-.885-.911s-.257-1.015-.257-1.912c0-.814-.009-1.3-.027-1.458-.025-.28-.098-.475-.216-.585s-.35-.166-.696-.166h-.169v-.983h.306c.357 0 .615.033.776.1.234.092.43.252.577.46l.002.003c.153.217.252.49.298.82s.07.87.074 1.621c.004.751.035 1.269.093 1.555s.176.512.352.679c.177.167.405.254.685.263z"/></symbol><symbol id="icon-output" viewBox="0 0 32 32"><path d="M14.906 1.96c5.757 0 10.686 3.466 12.853 8.424h-3.776a10.67 10.67 0 0 0-9.077-5.059C9.011 5.325 4.231 10.106 4.231 16s4.78 10.675 10.674 10.675a10.67 10.67 0 0 0 9.078-5.059h3.776c-2.167 4.958-7.096 8.424-12.853 8.424C7.151 30.04.866 23.755.866 16S7.151 1.96 14.906 1.96z"/><path d="M21.848 10.312a.989.989 0 0 0-.386.122l.005-.003c-.514.296-.855 1.396-1.048 2.809h-6.595c-.606 0-1.096.9-1.096 2.024v1.477c0 1.124.489 2.024 1.096 2.024h6.594c.193 1.413.533 2.513 1.048 2.81 1.643.949 9.666-3.674 9.666-5.572 0-1.779-7.05-5.957-9.285-5.691z"/></symbol><symbol id="icon-input" viewBox="0 0 32 32"><path d="M17.095 1.96c-5.758 0-10.687 3.466-12.853 8.424h3.776a10.668 10.668 0 0 1 9.077-5.059c5.894 0 10.674 4.781 10.674 10.675s-4.78 10.675-10.674 10.675a10.668 10.668 0 0 1-9.077-5.059H4.24c2.167 4.958 7.096 8.424 12.853 8.424 7.755 0 14.04-6.285 14.04-14.04S24.847 1.96 17.093 1.96z"/><path d="M9.985 10.312a.989.989 0 0 0-.386.122l.005-.003c-.513.296-.855 1.396-1.047 2.809H1.961c-.606 0-1.095.9-1.095 2.024v1.477c0 1.124.489 2.024 1.095 2.024h6.596c.192 1.413.533 2.513 1.048 2.81 1.643.949 9.666-3.674 9.666-5.572 0-1.779-7.05-5.957-9.285-5.691z"/></symbol><symbol id="icon-find" viewBox="0 0 32 32"><path d="M15.989.459a9.764 9.764 0 0 0-9.771 9.771c0 4.993 3.731 9.092 8.563 9.687-.445.624-.771 2.633-.771 5.063v1.291c0 2.929.477 5.271 1.062 5.271h1.833c.586 0 1.063-2.343 1.063-5.271V24.98c0-2.432-.325-4.441-.771-5.063 4.831-.595 8.583-4.695 8.583-9.687 0-5.402-4.39-9.771-9.792-9.771zm0 .728c4.94 0 8.959 4.019 8.959 8.959s-4.019 8.958-8.959 8.958c-4.939 0-8.937-4.019-8.937-8.958s3.998-8.959 8.937-8.959zm0 .667c-4.579 0-8.271 3.713-8.271 8.292s3.692 8.313 8.271 8.313c4.58 0 8.292-3.733 8.292-8.313a8.292 8.292 0 0 0-8.292-8.291zm-.083.5c4.391 0 7.938 3.568 7.938 7.959s-3.547 7.958-7.938 7.958-7.958-3.567-7.958-7.958 3.567-7.959 7.958-7.959z"/></symbol><symbol id="icon-link" viewBox="0 0 32 32"><path d="M15.751.668c-3.598.075-6.459 3.116-6.459 6.729v6.333c0 .791.145 1.542.396 2.25.004.013-.005.03 0 .041-.025.083-.053.158-.063.187-.001.007-.028.049-.063.167-.014.049-.027.112-.041.167-.039.147-.079.269-.104.397a6.377 6.377 0 0 0-.083.52c-.003.022-.013.084-.021.167-.011.117-.007.135 0 .063a6.768 6.768 0 0 0-.021.417v6.5c0 .212-.003.427.021.667.053.489.148.934.285 1.36l-.013-.048c.06.196.137.369.208.542.003.02.014.016.021.041.003.007-.002.015 0 .02.005.013-.005.008 0 .021.083.198.175.383.271.563.2.379.411.74.687 1.083.141.174.297.333.438.479.147.151.285.291.459.438.177.151.361.285.52.395.319.228.681.437 1.064.609l.04.016c.397.173.837.304 1.271.396s.879.145 1.333.145h.333c3.598-.075 6.479-3.116 6.479-6.729v-6.333c0-.789-.145-1.543-.396-2.25.013-.039-.005-.033 0-.063.008-.017.025-.015.042-.063.06-.176.075-.333.104-.438.031-.116.07-.245.104-.417.013-.067.017-.123.021-.145.031-.179.067-.357.083-.521.02-.2.041-.403.041-.645V7.395c0-.244-.02-.477-.041-.687a6.77 6.77 0 0 0-.48-1.917c-.091-.222-.2-.413-.291-.583C20.783 2.115 18.619.666 16.105.666h-.354zm.02 1h.334c2.133 0 3.967 1.212 4.917 3 .097.182.188.35.25.5.211.509.338 1.049.396 1.625.02.204.041.425.041.605v6.333c0 .175-.021.357-.041.563-.018.176-.04.325-.068.473l.006-.035a1.645 1.645 0 0 1-.021.104c-.02.098-.044.229-.083.375a5.678 5.678 0 0 1-.105.354c.003-.007-.015.033-.041.104-.005.015.004.008 0 .021a5.802 5.802 0 0 1-3.109 3.299l-.037.014v.02h-.021a4.391 4.391 0 0 1-.376.135l-.041.011h-.021c-.023.008-.01.015-.021.02h-.021c-.007.007-.065.031-.041.021a5.24 5.24 0 0 1-1.56.25h-.212c-.647 0-1.253-.181-1.833-.396v-.771c0-.811.374-1.416.938-1.729.039-.022.081-.045.125-.063.193.077.387.153.604.167.027.007.078 0 .167 0h.042c.294-.021.612-.025.979-.125.043.017.08.023.125.041l.229.104.208-.125c.876-.489 1.479-1.455 1.479-2.604v-1.75h-.021V7.396c0-.837-.316-1.595-.833-2.125s-1.232-.813-2-.813h-.354c-1.49.076-2.688 1.323-2.688 2.937V12c-1.12.553-1.985 1.441-2.645 2.5-.037-.26-.125-.502-.125-.771V7.396c0-3.083 2.434-5.665 5.479-5.729zm0 3.791h.334c.526 0 .966.188 1.291.521s.542.828.542 1.417v4.458a6.924 6.924 0 0 0-1.524-.249l-.018-.001v-.063h-.5c-.213 0-.409.024-.583.041h-.125c-.069.013-.085.023-.063.021a6.67 6.67 0 0 0-1.11.22l.047-.012V7.395c0-1.137.737-1.879 1.709-1.938zm.125 7.084h.209c.653 0 1.248.178 1.833.396v.771c0 .853-.46 1.498-1.083 1.792-.225-.088-.459-.171-.75-.167h-.209c-.182 0-.381.021-.583.063-.085.017-.153.039-.229.063-.019-.01-.044-.01-.063-.021h-.5c-.876.49-1.479 1.455-1.479 2.604v1.417l.021.041v5.104l-.001.091c0 1.163.695 2.164 1.692 2.61l.018.007v.02h.021c.185.077.366.135.521.167a3 3 0 0 0 .583.042h.355c1.487-.079 2.687-1.325 2.687-2.937v-4.625c1.114-.557 1.97-1.443 2.625-2.5.039.267.146.515.146.792v6.333c0 3.076-2.444 5.653-5.479 5.729h-.401a5.44 5.44 0 0 1-1.091-.11l.035.006a5.792 5.792 0 0 1-1.12-.369l.037.015c-.328-.143-.611-.329-.917-.542-.165-.115-.335-.207-.459-.312-.136-.116-.26-.256-.395-.396a5.53 5.53 0 0 1-.944-1.283l-.014-.03a4.835 4.835 0 0 1-.215-.442l-.014-.037v-.02a4.68 4.68 0 0 1-.176-.481l-.011-.04a5.434 5.434 0 0 1-.227-1.079l-.002-.025a5.63 5.63 0 0 1-.021-.505l.001-.083v.004-6.458c.003-.129.011-.259.021-.375.011-.113.008-.137 0-.063.001-.013.012-.05.021-.125.017-.139.031-.283.062-.437.027-.13.055-.249.083-.354.011-.041.028-.079.042-.125-.001.007.027-.059.063-.167.032-.099.033-.163.041-.187.547-1.508 1.692-2.725 3.146-3.333.087-.038.194-.062.313-.105.123-.043.158-.073.125-.063l.063-.021c.289-.092.626-.143.979-.187.047-.007.039-.015.062-.021h.063c.188-.019.365-.041.521-.041zm2.042 7.625v4.437c0 1.133-.74 1.876-1.709 1.937h-.333a2.288 2.288 0 0 1-.41-.044l.015.002v.021a1.766 1.766 0 0 1-.345-.109l.012.005c-.546-.229-.961-.72-1.083-1.396-.025-.128-.021-.258-.021-.417v-4.417c.58.176 1.196.271 1.833.271h.209c.648 0 1.259-.117 1.833-.292z"/></symbol><symbol id="icon-avaAlice" viewBox="0 0 32 32"><path fill="#f2c189" style="fill:var(--color1,#f2c189)" d="M16.234 22.957c-.374 0-.679.192-.679.418v1.697c-3.253.374-4.736 1.873-5.742 4.045H24.35l-.209-.548a2.786 2.786 0 0 0-.164-.409l.008.017c-.84-2.163-3.743-2.976-6.055-3.158v-1.645c0-.226-.305-.418-.679-.418h-1.018z"/><path fill="#f2c189" style="fill:var(--color1,#f2c189);stroke:var(--color2,#000)" stroke="#000" stroke-width=".484" d="M22.938 15.811c0 4.513-2.773 8.172-6.193 8.172s-6.193-3.659-6.193-8.172 2.773-8.172 6.193-8.172c3.42 0 6.193 3.659 6.193 8.172z"/><path style="fill:var(--color2,#000)" d="M13.95 19.822c.015.684 1.262 1.234 2.795 1.234s2.78-.551 2.795-1.234c-.629.386-1.645.637-2.795.637s-2.166-.251-2.795-.637zM15.403 14.407c0 .345-.266.624-.594.624s-.595-.28-.595-.624c0-.345.266-.624.595-.624s.595.279.595.624z"/><path fill="#fff" style="fill:var(--color3,#fff)" d="M18.679 12.656c-.821 0-1.484.972-1.484 2.17 0 .502.118.963.315 1.331a2.91 2.91 0 0 1 1.17-.238c.432 0 .835.089 1.174.238a2.85 2.85 0 0 0 .315-1.331c0-1.198-.667-2.17-1.488-2.17z"/><path fill="#276f20" style="fill:var(--color4,#276f20)" d="M19.746 14.432c0 .6-.463 1.087-1.035 1.087s-1.035-.487-1.035-1.087.463-1.087 1.035-1.087 1.035.486 1.035 1.087z"/><path style="fill:var(--color2,#000)" d="M19.176 14.432c0 .27-.208.489-.465.489s-.465-.219-.465-.489.208-.489.465-.489.465.219.465.489z"/><path fill="#fff" style="fill:var(--color3,#fff)" d="M14.807 12.656c-.821 0-1.484.972-1.484 2.17 0 .502.118.963.315 1.331a2.91 2.91 0 0 1 1.17-.238c.432 0 .835.089 1.174.238a2.85 2.85 0 0 0 .315-1.331c0-1.198-.667-2.17-1.488-2.17z"/><path fill="#276f20" style="fill:var(--color4,#276f20)" d="M15.85 14.466c0 .6-.463 1.087-1.035 1.087s-1.035-.487-1.035-1.087.463-1.087 1.035-1.087 1.035.486 1.035 1.087z"/><path style="fill:var(--color2,#000)" d="M15.28 14.466c0 .27-.208.489-.465.489s-.465-.219-.465-.489.208-.489.465-.489.465.219.465.489z"/><path fill="#fff" style="fill:var(--color3,#fff)" d="M19.147 13.816c-.022.015-.065.044-.065.066 0 .044.062.065.13.065s.13-.021.13-.065-.063-.066-.13-.066c-.034 0-.043-.014-.066 0zm-3.683.066c-.038 0-.066.054-.066.097 0 .044.028.066.066.066s.066-.021.066-.066c0-.043-.028-.097-.066-.097zm3.39.358c-.05 0-.066.048-.066.098s.016.098.066.098a.104.104 0 0 0 .098-.098.105.105 0 0 0-.098-.097zm-3.781.066c-.044 0-.098.021-.098.066 0 .043.054.097.098.097s.066-.054.066-.097c0-.044-.022-.066-.066-.066z"/><path style="fill:var(--color2,#000)" d="M16.743 15.526c-.739 0-1.335.786-1.335 1.755 0 .087.003.174.012.258.096-.846.651-1.496 1.323-1.496s1.227.651 1.323 1.496a2.43 2.43 0 0 0 .016-.258c0-.969-.6-1.755-1.339-1.755zM18.679 11.137c-.739 0-1.335.298-1.335.666a.36.36 0 0 0 .012.098c.096-.321.651-.568 1.323-.568s1.227.247 1.323.568a.365.365 0 0 0 .016-.098c0-.368-.6-.666-1.339-.666zm-3.872 0c-.739 0-1.335.298-1.335.666a.36.36 0 0 0 .012.098c.096-.321.651-.568 1.323-.568s1.228.247 1.323.568a.365.365 0 0 0 .016-.098c0-.368-.6-.666-1.339-.666z"/><path fill="#d47912" style="fill:var(--color5,#d47912);stroke:var(--color2,#000)" stroke="#000" stroke-width=".502" d="M17.513 2.873c-1.763 0-3.237 1.111-3.598 2.594a4.714 4.714 0 0 0-3.299-1.343 4.73 4.73 0 0 0-4.42 6.409 4.307 4.307 0 0 0-.734-.061h-.018.001c-2.386 0-4.32 1.875-4.32 4.191 0 1.144.473 2.18 1.238 2.936-1.029.309-1.771 1.161-1.771 2.17 0 1.269 1.172 2.299 2.618 2.299.551 0 1.063-.148 1.484-.403a2.428 2.428 0 0 0 2.412 2.702A2.421 2.421 0 0 0 9.49 22.37a2.427 2.427 0 0 0 1.432-1.944c.247-.037.462-.087.671-.15l-.033.009c-.638-1.285-1.008-2.822-1.008-4.473 0-1.084.161-2.119.452-3.066 2.909.514 4.24-1.761 4.34-3.892v-.016a3.97 3.97 0 0 0 2.17.633c.327 0 .642-.041.944-.113.556 1.19 1.866 2.025 3.396 2.025-.107 3.519 1.018 1.817 1.085 4.429 0 1.81-.447 3.482-1.202 4.836.282.16.608.298.951.399l.033.008v.057c0 1.496 1.382 2.706 3.09 2.706 1.298 0 2.409-.701 2.868-1.694 1.572-.376 2.731-1.66 2.731-3.186 0-.815-.333-1.558-.879-2.134.071-.256.113-.526.113-.803 0-1.179-.692-2.212-1.73-2.795.047-.211.069-.426.069-.649 0-1.822-1.645-3.299-3.679-3.299h-.008a2.99 2.99 0 0 0 .242-1.17c0-1.822-1.649-3.299-3.683-3.299-.326 0-.643.038-.944.109-.556-1.19-1.866-2.025-3.396-2.025z"/><path fill="#d43737" style="fill:var(--color6,#d43737)" d="M20.174 25.385c-.086 1.203-1.495 2.166-3.21 2.166-1.69 0-3.09-.934-3.21-2.114-2.06.653-3.14 1.963-3.941 3.707H24.35l-.209-.575a2.786 2.786 0 0 0-.164-.409l.008.017c-.58-1.495-2.135-2.353-3.811-2.793z"/></symbol></defs></svg>